<mxfile host="Electron" modified="2023-12-05T18:11:21.744Z" agent="Mozilla/5.0 (Windows NT 10.0; Win64; x64) AppleWebKit/537.36 (KHTML, like Gecko) draw.io/22.1.2 Chrome/114.0.5735.289 Electron/25.9.4 Safari/537.36" etag="AfqPysbbbo_ppH3JCpqR" version="22.1.2" type="device">
  <diagram name="PÃ¡gina-1" id="RFhCavI4URy0Ry_Rrn5z">
    <mxGraphModel dx="1050" dy="620" grid="1" gridSize="10" guides="1" tooltips="1" connect="1" arrows="1" fold="1" page="1" pageScale="1" pageWidth="827" pageHeight="1169" math="0" shadow="0">
      <root>
        <mxCell id="0" />
        <mxCell id="1" parent="0" />
        <mxCell id="Y5pIWSsqPr8B5Qjx6c1d-5" value="Users" style="shape=table;startSize=30;container=1;collapsible=1;childLayout=tableLayout;fixedRows=1;rowLines=0;fontStyle=1;align=center;resizeLast=1;html=1;rounded=1;fillColor=#f5f5f5;fontColor=#333333;strokeColor=#666666;" parent="1" vertex="1">
          <mxGeometry x="100" y="352" width="180" height="180" as="geometry" />
        </mxCell>
        <mxCell id="Y5pIWSsqPr8B5Qjx6c1d-6" value="" style="shape=tableRow;horizontal=0;startSize=0;swimlaneHead=0;swimlaneBody=0;fillColor=none;collapsible=0;dropTarget=0;points=[[0,0.5],[1,0.5]];portConstraint=eastwest;top=0;left=0;right=0;bottom=1;" parent="Y5pIWSsqPr8B5Qjx6c1d-5" vertex="1">
          <mxGeometry y="30" width="180" height="30" as="geometry" />
        </mxCell>
        <mxCell id="Y5pIWSsqPr8B5Qjx6c1d-7" value="PK" style="shape=partialRectangle;connectable=0;fillColor=none;top=0;left=0;bottom=0;right=0;fontStyle=1;overflow=hidden;whiteSpace=wrap;html=1;" parent="Y5pIWSsqPr8B5Qjx6c1d-6" vertex="1">
          <mxGeometry width="30" height="30" as="geometry">
            <mxRectangle width="30" height="30" as="alternateBounds" />
          </mxGeometry>
        </mxCell>
        <mxCell id="Y5pIWSsqPr8B5Qjx6c1d-8" value="ID : Long" style="shape=partialRectangle;connectable=0;fillColor=none;top=0;left=0;bottom=0;right=0;align=left;spacingLeft=6;fontStyle=5;overflow=hidden;whiteSpace=wrap;html=1;" parent="Y5pIWSsqPr8B5Qjx6c1d-6" vertex="1">
          <mxGeometry x="30" width="150" height="30" as="geometry">
            <mxRectangle width="150" height="30" as="alternateBounds" />
          </mxGeometry>
        </mxCell>
        <mxCell id="Y5pIWSsqPr8B5Qjx6c1d-9" value="" style="shape=tableRow;horizontal=0;startSize=0;swimlaneHead=0;swimlaneBody=0;fillColor=none;collapsible=0;dropTarget=0;points=[[0,0.5],[1,0.5]];portConstraint=eastwest;top=0;left=0;right=0;bottom=0;" parent="Y5pIWSsqPr8B5Qjx6c1d-5" vertex="1">
          <mxGeometry y="60" width="180" height="30" as="geometry" />
        </mxCell>
        <mxCell id="Y5pIWSsqPr8B5Qjx6c1d-10" value="" style="shape=partialRectangle;connectable=0;fillColor=none;top=0;left=0;bottom=0;right=0;editable=1;overflow=hidden;whiteSpace=wrap;html=1;" parent="Y5pIWSsqPr8B5Qjx6c1d-9" vertex="1">
          <mxGeometry width="30" height="30" as="geometry">
            <mxRectangle width="30" height="30" as="alternateBounds" />
          </mxGeometry>
        </mxCell>
        <mxCell id="Y5pIWSsqPr8B5Qjx6c1d-11" value="username: String" style="shape=partialRectangle;connectable=0;fillColor=none;top=0;left=0;bottom=0;right=0;align=left;spacingLeft=6;overflow=hidden;whiteSpace=wrap;html=1;" parent="Y5pIWSsqPr8B5Qjx6c1d-9" vertex="1">
          <mxGeometry x="30" width="150" height="30" as="geometry">
            <mxRectangle width="150" height="30" as="alternateBounds" />
          </mxGeometry>
        </mxCell>
        <mxCell id="Y5pIWSsqPr8B5Qjx6c1d-12" value="" style="shape=tableRow;horizontal=0;startSize=0;swimlaneHead=0;swimlaneBody=0;fillColor=none;collapsible=0;dropTarget=0;points=[[0,0.5],[1,0.5]];portConstraint=eastwest;top=0;left=0;right=0;bottom=0;" parent="Y5pIWSsqPr8B5Qjx6c1d-5" vertex="1">
          <mxGeometry y="90" width="180" height="30" as="geometry" />
        </mxCell>
        <mxCell id="Y5pIWSsqPr8B5Qjx6c1d-13" value="" style="shape=partialRectangle;connectable=0;fillColor=none;top=0;left=0;bottom=0;right=0;editable=1;overflow=hidden;whiteSpace=wrap;html=1;" parent="Y5pIWSsqPr8B5Qjx6c1d-12" vertex="1">
          <mxGeometry width="30" height="30" as="geometry">
            <mxRectangle width="30" height="30" as="alternateBounds" />
          </mxGeometry>
        </mxCell>
        <mxCell id="Y5pIWSsqPr8B5Qjx6c1d-14" value="password : String" style="shape=partialRectangle;connectable=0;fillColor=none;top=0;left=0;bottom=0;right=0;align=left;spacingLeft=6;overflow=hidden;whiteSpace=wrap;html=1;" parent="Y5pIWSsqPr8B5Qjx6c1d-12" vertex="1">
          <mxGeometry x="30" width="150" height="30" as="geometry">
            <mxRectangle width="150" height="30" as="alternateBounds" />
          </mxGeometry>
        </mxCell>
        <mxCell id="Y5pIWSsqPr8B5Qjx6c1d-15" value="" style="shape=tableRow;horizontal=0;startSize=0;swimlaneHead=0;swimlaneBody=0;fillColor=none;collapsible=0;dropTarget=0;points=[[0,0.5],[1,0.5]];portConstraint=eastwest;top=0;left=0;right=0;bottom=0;" parent="Y5pIWSsqPr8B5Qjx6c1d-5" vertex="1">
          <mxGeometry y="120" width="180" height="30" as="geometry" />
        </mxCell>
        <mxCell id="Y5pIWSsqPr8B5Qjx6c1d-16" value="" style="shape=partialRectangle;connectable=0;fillColor=none;top=0;left=0;bottom=0;right=0;editable=1;overflow=hidden;whiteSpace=wrap;html=1;" parent="Y5pIWSsqPr8B5Qjx6c1d-15" vertex="1">
          <mxGeometry width="30" height="30" as="geometry">
            <mxRectangle width="30" height="30" as="alternateBounds" />
          </mxGeometry>
        </mxCell>
        <mxCell id="Y5pIWSsqPr8B5Qjx6c1d-17" value="email: String" style="shape=partialRectangle;connectable=0;fillColor=none;top=0;left=0;bottom=0;right=0;align=left;spacingLeft=6;overflow=hidden;whiteSpace=wrap;html=1;" parent="Y5pIWSsqPr8B5Qjx6c1d-15" vertex="1">
          <mxGeometry x="30" width="150" height="30" as="geometry">
            <mxRectangle width="150" height="30" as="alternateBounds" />
          </mxGeometry>
        </mxCell>
        <mxCell id="Y5pIWSsqPr8B5Qjx6c1d-18" value="" style="shape=tableRow;horizontal=0;startSize=0;swimlaneHead=0;swimlaneBody=0;fillColor=none;collapsible=0;dropTarget=0;points=[[0,0.5],[1,0.5]];portConstraint=eastwest;top=0;left=0;right=0;bottom=0;" parent="Y5pIWSsqPr8B5Qjx6c1d-5" vertex="1">
          <mxGeometry y="150" width="180" height="30" as="geometry" />
        </mxCell>
        <mxCell id="Y5pIWSsqPr8B5Qjx6c1d-19" value="" style="shape=partialRectangle;connectable=0;fillColor=none;top=0;left=0;bottom=0;right=0;editable=1;overflow=hidden;whiteSpace=wrap;html=1;" parent="Y5pIWSsqPr8B5Qjx6c1d-18" vertex="1">
          <mxGeometry width="30" height="30" as="geometry">
            <mxRectangle width="30" height="30" as="alternateBounds" />
          </mxGeometry>
        </mxCell>
        <mxCell id="Y5pIWSsqPr8B5Qjx6c1d-20" value="worker_code: String" style="shape=partialRectangle;connectable=0;fillColor=none;top=0;left=0;bottom=0;right=0;align=left;spacingLeft=6;overflow=hidden;whiteSpace=wrap;html=1;" parent="Y5pIWSsqPr8B5Qjx6c1d-18" vertex="1">
          <mxGeometry x="30" width="150" height="30" as="geometry">
            <mxRectangle width="150" height="30" as="alternateBounds" />
          </mxGeometry>
        </mxCell>
        <mxCell id="Y5pIWSsqPr8B5Qjx6c1d-21" value="Parties" style="shape=table;startSize=30;container=1;collapsible=1;childLayout=tableLayout;fixedRows=1;rowLines=0;fontStyle=1;align=center;resizeLast=1;html=1;fillColor=#f5f5f5;fontColor=#333333;strokeColor=#666666;rounded=1;" parent="1" vertex="1">
          <mxGeometry x="525" y="352" width="180" height="180" as="geometry" />
        </mxCell>
        <mxCell id="Y5pIWSsqPr8B5Qjx6c1d-22" value="" style="shape=tableRow;horizontal=0;startSize=0;swimlaneHead=0;swimlaneBody=0;fillColor=none;collapsible=0;dropTarget=0;points=[[0,0.5],[1,0.5]];portConstraint=eastwest;top=0;left=0;right=0;bottom=1;" parent="Y5pIWSsqPr8B5Qjx6c1d-21" vertex="1">
          <mxGeometry y="30" width="180" height="30" as="geometry" />
        </mxCell>
        <mxCell id="Y5pIWSsqPr8B5Qjx6c1d-23" value="PK" style="shape=partialRectangle;connectable=0;fillColor=none;top=0;left=0;bottom=0;right=0;fontStyle=1;overflow=hidden;whiteSpace=wrap;html=1;" parent="Y5pIWSsqPr8B5Qjx6c1d-22" vertex="1">
          <mxGeometry width="30" height="30" as="geometry">
            <mxRectangle width="30" height="30" as="alternateBounds" />
          </mxGeometry>
        </mxCell>
        <mxCell id="Y5pIWSsqPr8B5Qjx6c1d-24" value="ID: Long" style="shape=partialRectangle;connectable=0;fillColor=none;top=0;left=0;bottom=0;right=0;align=left;spacingLeft=6;fontStyle=5;overflow=hidden;whiteSpace=wrap;html=1;" parent="Y5pIWSsqPr8B5Qjx6c1d-22" vertex="1">
          <mxGeometry x="30" width="150" height="30" as="geometry">
            <mxRectangle width="150" height="30" as="alternateBounds" />
          </mxGeometry>
        </mxCell>
        <mxCell id="Y5pIWSsqPr8B5Qjx6c1d-25" value="" style="shape=tableRow;horizontal=0;startSize=0;swimlaneHead=0;swimlaneBody=0;fillColor=none;collapsible=0;dropTarget=0;points=[[0,0.5],[1,0.5]];portConstraint=eastwest;top=0;left=0;right=0;bottom=0;" parent="Y5pIWSsqPr8B5Qjx6c1d-21" vertex="1">
          <mxGeometry y="60" width="180" height="30" as="geometry" />
        </mxCell>
        <mxCell id="Y5pIWSsqPr8B5Qjx6c1d-26" value="" style="shape=partialRectangle;connectable=0;fillColor=none;top=0;left=0;bottom=0;right=0;editable=1;overflow=hidden;whiteSpace=wrap;html=1;" parent="Y5pIWSsqPr8B5Qjx6c1d-25" vertex="1">
          <mxGeometry width="30" height="30" as="geometry">
            <mxRectangle width="30" height="30" as="alternateBounds" />
          </mxGeometry>
        </mxCell>
        <mxCell id="Y5pIWSsqPr8B5Qjx6c1d-27" value="title: String" style="shape=partialRectangle;connectable=0;fillColor=none;top=0;left=0;bottom=0;right=0;align=left;spacingLeft=6;overflow=hidden;whiteSpace=wrap;html=1;" parent="Y5pIWSsqPr8B5Qjx6c1d-25" vertex="1">
          <mxGeometry x="30" width="150" height="30" as="geometry">
            <mxRectangle width="150" height="30" as="alternateBounds" />
          </mxGeometry>
        </mxCell>
        <mxCell id="Y5pIWSsqPr8B5Qjx6c1d-28" value="" style="shape=tableRow;horizontal=0;startSize=0;swimlaneHead=0;swimlaneBody=0;fillColor=none;collapsible=0;dropTarget=0;points=[[0,0.5],[1,0.5]];portConstraint=eastwest;top=0;left=0;right=0;bottom=0;" parent="Y5pIWSsqPr8B5Qjx6c1d-21" vertex="1">
          <mxGeometry y="90" width="180" height="30" as="geometry" />
        </mxCell>
        <mxCell id="Y5pIWSsqPr8B5Qjx6c1d-29" value="" style="shape=partialRectangle;connectable=0;fillColor=none;top=0;left=0;bottom=0;right=0;editable=1;overflow=hidden;whiteSpace=wrap;html=1;" parent="Y5pIWSsqPr8B5Qjx6c1d-28" vertex="1">
          <mxGeometry width="30" height="30" as="geometry">
            <mxRectangle width="30" height="30" as="alternateBounds" />
          </mxGeometry>
        </mxCell>
        <mxCell id="Y5pIWSsqPr8B5Qjx6c1d-30" value="meetup&amp;nbsp;: String" style="shape=partialRectangle;connectable=0;fillColor=none;top=0;left=0;bottom=0;right=0;align=left;spacingLeft=6;overflow=hidden;whiteSpace=wrap;html=1;" parent="Y5pIWSsqPr8B5Qjx6c1d-28" vertex="1">
          <mxGeometry x="30" width="150" height="30" as="geometry">
            <mxRectangle width="150" height="30" as="alternateBounds" />
          </mxGeometry>
        </mxCell>
        <mxCell id="Y5pIWSsqPr8B5Qjx6c1d-31" value="" style="shape=tableRow;horizontal=0;startSize=0;swimlaneHead=0;swimlaneBody=0;fillColor=none;collapsible=0;dropTarget=0;points=[[0,0.5],[1,0.5]];portConstraint=eastwest;top=0;left=0;right=0;bottom=0;" parent="Y5pIWSsqPr8B5Qjx6c1d-21" vertex="1">
          <mxGeometry y="120" width="180" height="30" as="geometry" />
        </mxCell>
        <mxCell id="Y5pIWSsqPr8B5Qjx6c1d-32" value="FK" style="shape=partialRectangle;connectable=0;fillColor=none;top=0;left=0;bottom=0;right=0;editable=1;overflow=hidden;whiteSpace=wrap;html=1;" parent="Y5pIWSsqPr8B5Qjx6c1d-31" vertex="1">
          <mxGeometry width="30" height="30" as="geometry">
            <mxRectangle width="30" height="30" as="alternateBounds" />
          </mxGeometry>
        </mxCell>
        <mxCell id="Y5pIWSsqPr8B5Qjx6c1d-33" value="Game" style="shape=partialRectangle;connectable=0;fillColor=none;top=0;left=0;bottom=0;right=0;align=left;spacingLeft=6;overflow=hidden;whiteSpace=wrap;html=1;" parent="Y5pIWSsqPr8B5Qjx6c1d-31" vertex="1">
          <mxGeometry x="30" width="150" height="30" as="geometry">
            <mxRectangle width="150" height="30" as="alternateBounds" />
          </mxGeometry>
        </mxCell>
        <mxCell id="Y5pIWSsqPr8B5Qjx6c1d-34" value="" style="shape=tableRow;horizontal=0;startSize=0;swimlaneHead=0;swimlaneBody=0;fillColor=none;collapsible=0;dropTarget=0;points=[[0,0.5],[1,0.5]];portConstraint=eastwest;top=0;left=0;right=0;bottom=0;" parent="Y5pIWSsqPr8B5Qjx6c1d-21" vertex="1">
          <mxGeometry y="150" width="180" height="30" as="geometry" />
        </mxCell>
        <mxCell id="Y5pIWSsqPr8B5Qjx6c1d-35" value="FK" style="shape=partialRectangle;connectable=0;fillColor=none;top=0;left=0;bottom=0;right=0;editable=1;overflow=hidden;whiteSpace=wrap;html=1;" parent="Y5pIWSsqPr8B5Qjx6c1d-34" vertex="1">
          <mxGeometry width="30" height="30" as="geometry">
            <mxRectangle width="30" height="30" as="alternateBounds" />
          </mxGeometry>
        </mxCell>
        <mxCell id="Y5pIWSsqPr8B5Qjx6c1d-36" value="User_creator" style="shape=partialRectangle;connectable=0;fillColor=none;top=0;left=0;bottom=0;right=0;align=left;spacingLeft=6;overflow=hidden;whiteSpace=wrap;html=1;" parent="Y5pIWSsqPr8B5Qjx6c1d-34" vertex="1">
          <mxGeometry x="30" width="150" height="30" as="geometry">
            <mxRectangle width="150" height="30" as="alternateBounds" />
          </mxGeometry>
        </mxCell>
        <mxCell id="Y5pIWSsqPr8B5Qjx6c1d-37" value="Games" style="shape=table;startSize=30;container=1;collapsible=1;childLayout=tableLayout;fixedRows=1;rowLines=0;fontStyle=1;align=center;resizeLast=1;html=1;fillColor=#f5f5f5;fontColor=#333333;strokeColor=#666666;rounded=1;" parent="1" vertex="1">
          <mxGeometry x="527" y="64" width="180" height="120" as="geometry" />
        </mxCell>
        <mxCell id="Y5pIWSsqPr8B5Qjx6c1d-38" value="" style="shape=tableRow;horizontal=0;startSize=0;swimlaneHead=0;swimlaneBody=0;fillColor=none;collapsible=0;dropTarget=0;points=[[0,0.5],[1,0.5]];portConstraint=eastwest;top=0;left=0;right=0;bottom=1;" parent="Y5pIWSsqPr8B5Qjx6c1d-37" vertex="1">
          <mxGeometry y="30" width="180" height="30" as="geometry" />
        </mxCell>
        <mxCell id="Y5pIWSsqPr8B5Qjx6c1d-39" value="PK" style="shape=partialRectangle;connectable=0;fillColor=none;top=0;left=0;bottom=0;right=0;fontStyle=1;overflow=hidden;whiteSpace=wrap;html=1;" parent="Y5pIWSsqPr8B5Qjx6c1d-38" vertex="1">
          <mxGeometry width="30" height="30" as="geometry">
            <mxRectangle width="30" height="30" as="alternateBounds" />
          </mxGeometry>
        </mxCell>
        <mxCell id="Y5pIWSsqPr8B5Qjx6c1d-40" value="ID: Long" style="shape=partialRectangle;connectable=0;fillColor=none;top=0;left=0;bottom=0;right=0;align=left;spacingLeft=6;fontStyle=5;overflow=hidden;whiteSpace=wrap;html=1;" parent="Y5pIWSsqPr8B5Qjx6c1d-38" vertex="1">
          <mxGeometry x="30" width="150" height="30" as="geometry">
            <mxRectangle width="150" height="30" as="alternateBounds" />
          </mxGeometry>
        </mxCell>
        <mxCell id="Y5pIWSsqPr8B5Qjx6c1d-41" value="" style="shape=tableRow;horizontal=0;startSize=0;swimlaneHead=0;swimlaneBody=0;fillColor=none;collapsible=0;dropTarget=0;points=[[0,0.5],[1,0.5]];portConstraint=eastwest;top=0;left=0;right=0;bottom=0;" parent="Y5pIWSsqPr8B5Qjx6c1d-37" vertex="1">
          <mxGeometry y="60" width="180" height="30" as="geometry" />
        </mxCell>
        <mxCell id="Y5pIWSsqPr8B5Qjx6c1d-42" value="" style="shape=partialRectangle;connectable=0;fillColor=none;top=0;left=0;bottom=0;right=0;editable=1;overflow=hidden;whiteSpace=wrap;html=1;" parent="Y5pIWSsqPr8B5Qjx6c1d-41" vertex="1">
          <mxGeometry width="30" height="30" as="geometry">
            <mxRectangle width="30" height="30" as="alternateBounds" />
          </mxGeometry>
        </mxCell>
        <mxCell id="Y5pIWSsqPr8B5Qjx6c1d-43" value="title: String" style="shape=partialRectangle;connectable=0;fillColor=none;top=0;left=0;bottom=0;right=0;align=left;spacingLeft=6;overflow=hidden;whiteSpace=wrap;html=1;" parent="Y5pIWSsqPr8B5Qjx6c1d-41" vertex="1">
          <mxGeometry x="30" width="150" height="30" as="geometry">
            <mxRectangle width="150" height="30" as="alternateBounds" />
          </mxGeometry>
        </mxCell>
        <mxCell id="Y5pIWSsqPr8B5Qjx6c1d-44" value="" style="shape=tableRow;horizontal=0;startSize=0;swimlaneHead=0;swimlaneBody=0;fillColor=none;collapsible=0;dropTarget=0;points=[[0,0.5],[1,0.5]];portConstraint=eastwest;top=0;left=0;right=0;bottom=0;" parent="Y5pIWSsqPr8B5Qjx6c1d-37" vertex="1">
          <mxGeometry y="90" width="180" height="30" as="geometry" />
        </mxCell>
        <mxCell id="Y5pIWSsqPr8B5Qjx6c1d-45" value="" style="shape=partialRectangle;connectable=0;fillColor=none;top=0;left=0;bottom=0;right=0;editable=1;overflow=hidden;whiteSpace=wrap;html=1;" parent="Y5pIWSsqPr8B5Qjx6c1d-44" vertex="1">
          <mxGeometry width="30" height="30" as="geometry">
            <mxRectangle width="30" height="30" as="alternateBounds" />
          </mxGeometry>
        </mxCell>
        <mxCell id="Y5pIWSsqPr8B5Qjx6c1d-46" value="Description: String" style="shape=partialRectangle;connectable=0;fillColor=none;top=0;left=0;bottom=0;right=0;align=left;spacingLeft=6;overflow=hidden;whiteSpace=wrap;html=1;" parent="Y5pIWSsqPr8B5Qjx6c1d-44" vertex="1">
          <mxGeometry x="30" width="150" height="30" as="geometry">
            <mxRectangle width="150" height="30" as="alternateBounds" />
          </mxGeometry>
        </mxCell>
        <mxCell id="Y5pIWSsqPr8B5Qjx6c1d-50" value="Has" style="shape=rhombus;perimeter=rhombusPerimeter;whiteSpace=wrap;html=1;align=center;rounded=1;" parent="1" vertex="1">
          <mxGeometry x="554" y="234" width="120" height="60" as="geometry" />
        </mxCell>
        <mxCell id="Y5pIWSsqPr8B5Qjx6c1d-52" value="" style="endArrow=none;html=1;rounded=0;exitX=0.5;exitY=0.967;exitDx=0;exitDy=0;exitPerimeter=0;entryX=0.5;entryY=0;entryDx=0;entryDy=0;" parent="1" target="Y5pIWSsqPr8B5Qjx6c1d-50" edge="1">
          <mxGeometry relative="1" as="geometry">
            <mxPoint x="614" y="184.01" as="sourcePoint" />
            <mxPoint x="614" y="225" as="targetPoint" />
          </mxGeometry>
        </mxCell>
        <mxCell id="Y5pIWSsqPr8B5Qjx6c1d-54" value="" style="endArrow=none;html=1;rounded=0;exitX=0.5;exitY=1;exitDx=0;exitDy=0;entryX=0.5;entryY=0;entryDx=0;entryDy=0;" parent="1" target="Y5pIWSsqPr8B5Qjx6c1d-21" edge="1">
          <mxGeometry relative="1" as="geometry">
            <mxPoint x="615" y="293" as="sourcePoint" />
            <mxPoint x="611" y="352" as="targetPoint" />
          </mxGeometry>
        </mxCell>
        <mxCell id="Y5pIWSsqPr8B5Qjx6c1d-55" value="Messages" style="shape=table;startSize=30;container=1;collapsible=1;childLayout=tableLayout;fixedRows=1;rowLines=0;fontStyle=1;align=center;resizeLast=1;html=1;fillColor=#f5f5f5;fontColor=#333333;strokeColor=#666666;rounded=1;" parent="1" vertex="1">
          <mxGeometry x="295" y="704" width="180" height="180" as="geometry" />
        </mxCell>
        <mxCell id="Y5pIWSsqPr8B5Qjx6c1d-56" value="" style="shape=tableRow;horizontal=0;startSize=0;swimlaneHead=0;swimlaneBody=0;fillColor=none;collapsible=0;dropTarget=0;points=[[0,0.5],[1,0.5]];portConstraint=eastwest;top=0;left=0;right=0;bottom=1;" parent="Y5pIWSsqPr8B5Qjx6c1d-55" vertex="1">
          <mxGeometry y="30" width="180" height="30" as="geometry" />
        </mxCell>
        <mxCell id="Y5pIWSsqPr8B5Qjx6c1d-57" value="PK" style="shape=partialRectangle;connectable=0;fillColor=none;top=0;left=0;bottom=0;right=0;fontStyle=1;overflow=hidden;whiteSpace=wrap;html=1;" parent="Y5pIWSsqPr8B5Qjx6c1d-56" vertex="1">
          <mxGeometry width="30" height="30" as="geometry">
            <mxRectangle width="30" height="30" as="alternateBounds" />
          </mxGeometry>
        </mxCell>
        <mxCell id="Y5pIWSsqPr8B5Qjx6c1d-58" value="ID: Long" style="shape=partialRectangle;connectable=0;fillColor=none;top=0;left=0;bottom=0;right=0;align=left;spacingLeft=6;fontStyle=5;overflow=hidden;whiteSpace=wrap;html=1;" parent="Y5pIWSsqPr8B5Qjx6c1d-56" vertex="1">
          <mxGeometry x="30" width="150" height="30" as="geometry">
            <mxRectangle width="150" height="30" as="alternateBounds" />
          </mxGeometry>
        </mxCell>
        <mxCell id="Y5pIWSsqPr8B5Qjx6c1d-59" value="" style="shape=tableRow;horizontal=0;startSize=0;swimlaneHead=0;swimlaneBody=0;fillColor=none;collapsible=0;dropTarget=0;points=[[0,0.5],[1,0.5]];portConstraint=eastwest;top=0;left=0;right=0;bottom=0;" parent="Y5pIWSsqPr8B5Qjx6c1d-55" vertex="1">
          <mxGeometry y="60" width="180" height="30" as="geometry" />
        </mxCell>
        <mxCell id="Y5pIWSsqPr8B5Qjx6c1d-60" value="" style="shape=partialRectangle;connectable=0;fillColor=none;top=0;left=0;bottom=0;right=0;editable=1;overflow=hidden;whiteSpace=wrap;html=1;" parent="Y5pIWSsqPr8B5Qjx6c1d-59" vertex="1">
          <mxGeometry width="30" height="30" as="geometry">
            <mxRectangle width="30" height="30" as="alternateBounds" />
          </mxGeometry>
        </mxCell>
        <mxCell id="Y5pIWSsqPr8B5Qjx6c1d-61" value="content : String" style="shape=partialRectangle;connectable=0;fillColor=none;top=0;left=0;bottom=0;right=0;align=left;spacingLeft=6;overflow=hidden;whiteSpace=wrap;html=1;" parent="Y5pIWSsqPr8B5Qjx6c1d-59" vertex="1">
          <mxGeometry x="30" width="150" height="30" as="geometry">
            <mxRectangle width="150" height="30" as="alternateBounds" />
          </mxGeometry>
        </mxCell>
        <mxCell id="Y5pIWSsqPr8B5Qjx6c1d-62" value="" style="shape=tableRow;horizontal=0;startSize=0;swimlaneHead=0;swimlaneBody=0;fillColor=none;collapsible=0;dropTarget=0;points=[[0,0.5],[1,0.5]];portConstraint=eastwest;top=0;left=0;right=0;bottom=0;" parent="Y5pIWSsqPr8B5Qjx6c1d-55" vertex="1">
          <mxGeometry y="90" width="180" height="30" as="geometry" />
        </mxCell>
        <mxCell id="Y5pIWSsqPr8B5Qjx6c1d-63" value="" style="shape=partialRectangle;connectable=0;fillColor=none;top=0;left=0;bottom=0;right=0;editable=1;overflow=hidden;whiteSpace=wrap;html=1;" parent="Y5pIWSsqPr8B5Qjx6c1d-62" vertex="1">
          <mxGeometry width="30" height="30" as="geometry">
            <mxRectangle width="30" height="30" as="alternateBounds" />
          </mxGeometry>
        </mxCell>
        <mxCell id="Y5pIWSsqPr8B5Qjx6c1d-64" value="time_stamp" style="shape=partialRectangle;connectable=0;fillColor=none;top=0;left=0;bottom=0;right=0;align=left;spacingLeft=6;overflow=hidden;whiteSpace=wrap;html=1;" parent="Y5pIWSsqPr8B5Qjx6c1d-62" vertex="1">
          <mxGeometry x="30" width="150" height="30" as="geometry">
            <mxRectangle width="150" height="30" as="alternateBounds" />
          </mxGeometry>
        </mxCell>
        <mxCell id="Y5pIWSsqPr8B5Qjx6c1d-65" value="" style="shape=tableRow;horizontal=0;startSize=0;swimlaneHead=0;swimlaneBody=0;fillColor=none;collapsible=0;dropTarget=0;points=[[0,0.5],[1,0.5]];portConstraint=eastwest;top=0;left=0;right=0;bottom=0;" parent="Y5pIWSsqPr8B5Qjx6c1d-55" vertex="1">
          <mxGeometry y="120" width="180" height="30" as="geometry" />
        </mxCell>
        <mxCell id="Y5pIWSsqPr8B5Qjx6c1d-66" value="FK" style="shape=partialRectangle;connectable=0;fillColor=none;top=0;left=0;bottom=0;right=0;editable=1;overflow=hidden;whiteSpace=wrap;html=1;" parent="Y5pIWSsqPr8B5Qjx6c1d-65" vertex="1">
          <mxGeometry width="30" height="30" as="geometry">
            <mxRectangle width="30" height="30" as="alternateBounds" />
          </mxGeometry>
        </mxCell>
        <mxCell id="Y5pIWSsqPr8B5Qjx6c1d-67" value="Sender" style="shape=partialRectangle;connectable=0;fillColor=none;top=0;left=0;bottom=0;right=0;align=left;spacingLeft=6;overflow=hidden;whiteSpace=wrap;html=1;" parent="Y5pIWSsqPr8B5Qjx6c1d-65" vertex="1">
          <mxGeometry x="30" width="150" height="30" as="geometry">
            <mxRectangle width="150" height="30" as="alternateBounds" />
          </mxGeometry>
        </mxCell>
        <mxCell id="Y5pIWSsqPr8B5Qjx6c1d-68" value="" style="shape=tableRow;horizontal=0;startSize=0;swimlaneHead=0;swimlaneBody=0;fillColor=none;collapsible=0;dropTarget=0;points=[[0,0.5],[1,0.5]];portConstraint=eastwest;top=0;left=0;right=0;bottom=0;" parent="Y5pIWSsqPr8B5Qjx6c1d-55" vertex="1">
          <mxGeometry y="150" width="180" height="30" as="geometry" />
        </mxCell>
        <mxCell id="Y5pIWSsqPr8B5Qjx6c1d-69" value="FK" style="shape=partialRectangle;connectable=0;fillColor=none;top=0;left=0;bottom=0;right=0;editable=1;overflow=hidden;whiteSpace=wrap;html=1;" parent="Y5pIWSsqPr8B5Qjx6c1d-68" vertex="1">
          <mxGeometry width="30" height="30" as="geometry">
            <mxRectangle width="30" height="30" as="alternateBounds" />
          </mxGeometry>
        </mxCell>
        <mxCell id="Y5pIWSsqPr8B5Qjx6c1d-70" value="Party_Ref" style="shape=partialRectangle;connectable=0;fillColor=none;top=0;left=0;bottom=0;right=0;align=left;spacingLeft=6;overflow=hidden;whiteSpace=wrap;html=1;" parent="Y5pIWSsqPr8B5Qjx6c1d-68" vertex="1">
          <mxGeometry x="30" width="150" height="30" as="geometry">
            <mxRectangle width="150" height="30" as="alternateBounds" />
          </mxGeometry>
        </mxCell>
        <mxCell id="Y5pIWSsqPr8B5Qjx6c1d-71" value="Created" style="shape=rhombus;perimeter=rhombusPerimeter;whiteSpace=wrap;html=1;align=center;rounded=1;" parent="1" vertex="1">
          <mxGeometry x="344" y="292" width="120" height="60" as="geometry" />
        </mxCell>
        <mxCell id="Y5pIWSsqPr8B5Qjx6c1d-72" value="Join" style="shape=rhombus;perimeter=rhombusPerimeter;whiteSpace=wrap;html=1;align=center;rounded=1;" parent="1" vertex="1">
          <mxGeometry x="342" y="519" width="120" height="60" as="geometry" />
        </mxCell>
        <mxCell id="Y5pIWSsqPr8B5Qjx6c1d-73" value="" style="endArrow=none;html=1;rounded=0;entryX=0.006;entryY=0.733;entryDx=0;entryDy=0;entryPerimeter=0;exitX=0.942;exitY=0.5;exitDx=0;exitDy=0;exitPerimeter=0;" parent="1" edge="1">
          <mxGeometry relative="1" as="geometry">
            <mxPoint x="455.03999999999996" y="551" as="sourcePoint" />
            <mxPoint x="526.0799999999999" y="525.99" as="targetPoint" />
          </mxGeometry>
        </mxCell>
        <mxCell id="Y5pIWSsqPr8B5Qjx6c1d-74" value="" style="endArrow=none;html=1;rounded=0;exitX=1;exitY=0.733;exitDx=0;exitDy=0;exitPerimeter=0;entryX=0.058;entryY=0.467;entryDx=0;entryDy=0;entryPerimeter=0;" parent="1" edge="1">
          <mxGeometry relative="1" as="geometry">
            <mxPoint x="279" y="524.99" as="sourcePoint" />
            <mxPoint x="343.96000000000004" y="548.02" as="targetPoint" />
          </mxGeometry>
        </mxCell>
        <mxCell id="Y5pIWSsqPr8B5Qjx6c1d-75" value="" style="endArrow=none;html=1;rounded=0;exitX=0.925;exitY=0.45;exitDx=0;exitDy=0;exitPerimeter=0;" parent="1" edge="1">
          <mxGeometry relative="1" as="geometry">
            <mxPoint x="458" y="321" as="sourcePoint" />
            <mxPoint x="526" y="357" as="targetPoint" />
          </mxGeometry>
        </mxCell>
        <mxCell id="Y5pIWSsqPr8B5Qjx6c1d-77" value="" style="endArrow=none;html=1;rounded=0;exitX=0.967;exitY=0.017;exitDx=0;exitDy=0;exitPerimeter=0;entryX=0.067;entryY=0.5;entryDx=0;entryDy=0;entryPerimeter=0;" parent="1" edge="1">
          <mxGeometry relative="1" as="geometry">
            <mxPoint x="275.05999999999995" y="355.05999999999995" as="sourcePoint" />
            <mxPoint x="349.03999999999996" y="322" as="targetPoint" />
          </mxGeometry>
        </mxCell>
        <mxCell id="Y5pIWSsqPr8B5Qjx6c1d-79" value="Send" style="shape=rhombus;perimeter=rhombusPerimeter;whiteSpace=wrap;html=1;align=center;rounded=1;" parent="1" vertex="1">
          <mxGeometry x="126" y="604" width="120" height="60" as="geometry" />
        </mxCell>
        <mxCell id="Y5pIWSsqPr8B5Qjx6c1d-80" value="" style="endArrow=none;html=1;rounded=0;entryX=0.5;entryY=1;entryDx=0;entryDy=0;" parent="1" source="Y5pIWSsqPr8B5Qjx6c1d-55" edge="1">
          <mxGeometry relative="1" as="geometry">
            <mxPoint x="294" y="704" as="sourcePoint" />
            <mxPoint x="188" y="663" as="targetPoint" />
          </mxGeometry>
        </mxCell>
        <mxCell id="Y5pIWSsqPr8B5Qjx6c1d-82" value="" style="endArrow=none;html=1;rounded=0;exitX=0.5;exitY=0;exitDx=0;exitDy=0;entryX=0.478;entryY=1.1;entryDx=0;entryDy=0;entryPerimeter=0;" parent="1" source="Y5pIWSsqPr8B5Qjx6c1d-79" target="Y5pIWSsqPr8B5Qjx6c1d-18" edge="1">
          <mxGeometry relative="1" as="geometry">
            <mxPoint x="374" y="634" as="sourcePoint" />
            <mxPoint x="534" y="634" as="targetPoint" />
          </mxGeometry>
        </mxCell>
        <mxCell id="Y5pIWSsqPr8B5Qjx6c1d-83" value="Include" style="shape=rhombus;perimeter=rhombusPerimeter;whiteSpace=wrap;html=1;align=center;rounded=1;" parent="1" vertex="1">
          <mxGeometry x="555" y="614" width="120" height="60" as="geometry" />
        </mxCell>
        <mxCell id="Y5pIWSsqPr8B5Qjx6c1d-84" value="" style="endArrow=none;html=1;rounded=0;exitX=0.994;exitY=0.039;exitDx=0;exitDy=0;entryX=0.5;entryY=1;entryDx=0;entryDy=0;exitPerimeter=0;" parent="1" edge="1">
          <mxGeometry relative="1" as="geometry">
            <mxPoint x="473.9200000000001" y="709.02" as="sourcePoint" />
            <mxPoint x="615" y="672" as="targetPoint" />
          </mxGeometry>
        </mxCell>
        <mxCell id="Y5pIWSsqPr8B5Qjx6c1d-85" value="" style="endArrow=none;html=1;rounded=0;exitX=0.5;exitY=1.067;exitDx=0;exitDy=0;exitPerimeter=0;entryX=0.5;entryY=0;entryDx=0;entryDy=0;" parent="1" edge="1">
          <mxGeometry relative="1" as="geometry">
            <mxPoint x="617" y="534.01" as="sourcePoint" />
            <mxPoint x="617" y="614" as="targetPoint" />
          </mxGeometry>
        </mxCell>
        <mxCell id="Y5pIWSsqPr8B5Qjx6c1d-86" value="&lt;h1 style=&quot;line-height: 150%;&quot;&gt;&lt;div style=&quot;text-align: center; border-color: var(--border-color); line-height: 130%;&quot;&gt;&lt;font size=&quot;1&quot; color=&quot;#999999&quot; style=&quot;border-color: var(--border-color);&quot;&gt;&lt;span style=&quot;border-color: var(--border-color);&quot;&gt;&lt;span style=&quot;border-color: var(--border-color); font-size: 13px;&quot;&gt;RELACIONAL MODEL&lt;/span&gt;&lt;/span&gt;&lt;/font&gt;&lt;/div&gt;&lt;div style=&quot;border-color: var(--border-color); font-size: 12px; line-height: 130%;&quot;&gt;&lt;font style=&quot;border-color: var(--border-color);&quot;&gt;&lt;span style=&quot;border-color: var(--border-color);&quot;&gt;&lt;span style=&quot;border-color: var(--border-color);&quot;&gt;&lt;span style=&quot;font-weight: 400;&quot;&gt;&lt;br&gt;&lt;/span&gt;&lt;/span&gt;&lt;/span&gt;&lt;/font&gt;&lt;/div&gt;&lt;div style=&quot;border-color: var(--border-color); font-size: 12px; line-height: 130%;&quot;&gt;&lt;font style=&quot;border-color: var(--border-color);&quot;&gt;&lt;span style=&quot;border-color: var(--border-color);&quot;&gt;&lt;span style=&quot;border-color: var(--border-color);&quot;&gt;&lt;span style=&quot;font-weight: 400;&quot;&gt;User (&lt;/span&gt;&lt;u style=&quot;&quot;&gt;ID,&lt;/u&gt;&lt;/span&gt;&lt;font style=&quot;font-weight: 400; border-color: var(--border-color);&quot; color=&quot;#808080&quot;&gt;&amp;nbsp;&lt;/font&gt;&lt;font color=&quot;#000000&quot;&gt;&lt;font style=&quot;font-weight: 400; border-color: var(--border-color);&quot;&gt;username , passaword , email , worker_code&lt;/font&gt;&lt;span style=&quot;font-weight: 400;&quot;&gt;)&lt;/span&gt;&lt;/font&gt;&lt;br&gt;&lt;/span&gt;&lt;/font&gt;&lt;/div&gt;&lt;div style=&quot;border-color: var(--border-color); font-size: 12px; line-height: 130%;&quot;&gt;&lt;font style=&quot;border-color: var(--border-color);&quot;&gt;&lt;span style=&quot;border-color: var(--border-color);&quot;&gt;&lt;span style=&quot;font-weight: 400;&quot;&gt;&lt;br&gt;&lt;/span&gt;&lt;/span&gt;&lt;/font&gt;&lt;/div&gt;&lt;div style=&quot;border-color: var(--border-color); font-size: 12px; line-height: 130%;&quot;&gt;&lt;font style=&quot;border-color: var(--border-color);&quot;&gt;&lt;span style=&quot;border-color: var(--border-color);&quot;&gt;&lt;span style=&quot;border-color: var(--border-color);&quot;&gt;&lt;span style=&quot;font-weight: 400;&quot;&gt;Games (&lt;/span&gt;&lt;u&gt;ID&lt;/u&gt;&lt;/span&gt;&lt;span style=&quot;font-weight: 400; border-color: var(--border-color);&quot;&gt;: title , description&amp;nbsp;&lt;/span&gt;&lt;span style=&quot;border-color: var(--border-color);&quot;&gt;&lt;span style=&quot;font-weight: 400;&quot;&gt;)&amp;nbsp;&lt;/span&gt;&lt;/span&gt;&lt;/span&gt;&lt;/font&gt;&lt;/div&gt;&lt;div style=&quot;border-color: var(--border-color); font-size: 12px; line-height: 130%;&quot;&gt;&lt;font style=&quot;border-color: var(--border-color);&quot;&gt;&lt;span style=&quot;border-color: var(--border-color);&quot;&gt;&lt;span style=&quot;border-color: var(--border-color);&quot;&gt;&lt;span style=&quot;font-weight: 400;&quot;&gt;&lt;br&gt;&lt;/span&gt;&lt;/span&gt;&lt;/span&gt;&lt;/font&gt;&lt;/div&gt;&lt;div style=&quot;border-color: var(--border-color); font-size: 12px; line-height: 130%;&quot;&gt;&lt;font style=&quot;border-color: var(--border-color);&quot;&gt;&lt;span style=&quot;border-color: var(--border-color);&quot;&gt;&lt;span style=&quot;border-color: var(--border-color);&quot;&gt;&lt;span style=&quot;font-weight: 400;&quot;&gt;Parties (&lt;/span&gt;ID&lt;span style=&quot;font-weight: 400;&quot;&gt; , title , meetup ,&lt;/span&gt;FK Game&lt;i&gt; [Ref_Game_ID]&amp;nbsp;&lt;/i&gt; ,FK User_Creator &lt;i&gt;[Ref_User_ID]&lt;/i&gt;&lt;span style=&quot;font-weight: 400;&quot;&gt;)&lt;/span&gt;&lt;/span&gt;&lt;/span&gt;&lt;/font&gt;&lt;/div&gt;&lt;/h1&gt;&lt;h1 style=&quot;border-color: var(--border-color); line-height: 36px;&quot;&gt;&lt;div style=&quot;border-color: var(--border-color); font-size: 12px; line-height: 15.6px;&quot;&gt;&lt;font style=&quot;border-color: var(--border-color);&quot;&gt;&lt;span style=&quot;font-weight: normal;&quot;&gt;Message&lt;/span&gt; (&lt;u style=&quot;border-color: var(--border-color);&quot;&gt;ID&lt;/u&gt;&lt;span style=&quot;border-color: var(--border-color); font-weight: 400;&quot;&gt;&amp;nbsp;, content , time_stamp ,&amp;nbsp;&lt;/span&gt;FK Sender&lt;i style=&quot;border-color: var(--border-color);&quot;&gt;&amp;nbsp;[Ref_ User_ID]&lt;/i&gt;&amp;nbsp;,FK Party_Ref&amp;nbsp;&amp;nbsp;&lt;i style=&quot;border-color: var(--border-color);&quot;&gt;[Ref_Parties_ID]&lt;/i&gt;&lt;span style=&quot;border-color: var(--border-color); font-weight: 400;&quot;&gt;)&lt;/span&gt;&lt;/font&gt;&lt;/div&gt;&lt;/h1&gt;&lt;h1 style=&quot;line-height: 150%;&quot;&gt;&lt;div style=&quot;border-color: var(--border-color); font-size: 12px; line-height: 130%;&quot;&gt;&lt;font style=&quot;border-color: var(--border-color);&quot;&gt;&lt;span style=&quot;border-color: var(--border-color);&quot;&gt;PartyMenbres&lt;span style=&quot;font-weight: 400;&quot;&gt;&amp;nbsp;(&lt;/span&gt;&lt;u&gt;ID, &lt;/u&gt;FK User &lt;i&gt;[Ref Users_ID] &lt;/i&gt;, FK Party &lt;i&gt;[Ref_ Parties ID]&lt;/i&gt;&lt;/span&gt;&lt;span style=&quot;font-weight: 400;&quot;&gt;)&amp;nbsp;&lt;/span&gt;&lt;/font&gt;&lt;/div&gt;&lt;div style=&quot;border-color: var(--border-color); font-size: 12px; line-height: 130%;&quot;&gt;&lt;br&gt;&lt;/div&gt;&lt;/h1&gt;" style="text;html=1;strokeColor=#666666;fillColor=#f5f5f5;spacing=5;spacingTop=-20;whiteSpace=wrap;overflow=hidden;rounded=1;fontColor=#333333;arcSize=5;absoluteArcSize=0;imageWidth=24;perimeterSpacing=6;strokeWidth=2;" parent="1" vertex="1">
          <mxGeometry x="138" y="920" width="552" height="210" as="geometry" />
        </mxCell>
        <mxCell id="Y5pIWSsqPr8B5Qjx6c1d-89" value="&lt;h1 style=&quot;line-height: 150%;&quot;&gt;&lt;div style=&quot;border-color: var(--border-color); line-height: 130%;&quot;&gt;&lt;font color=&quot;#999999&quot;&gt;&lt;span style=&quot;font-size: 13px;&quot;&gt;ER DIAGRAM&lt;/span&gt;&lt;/font&gt;&lt;/div&gt;&lt;div style=&quot;border-color: var(--border-color); line-height: 130%;&quot;&gt;&lt;font color=&quot;#999999&quot;&gt;&lt;span style=&quot;font-size: 13px;&quot;&gt;PRUEBA TÃCNICA&lt;/span&gt;&lt;/font&gt;&lt;/div&gt;&lt;/h1&gt;" style="text;html=1;strokeColor=#666666;fillColor=#f5f5f5;spacing=5;spacingTop=-20;whiteSpace=wrap;overflow=hidden;rounded=1;fontColor=#333333;arcSize=5;absoluteArcSize=0;imageWidth=24;perimeterSpacing=6;strokeWidth=2;align=center;" parent="1" vertex="1">
          <mxGeometry x="100" y="64" width="220" height="90" as="geometry" />
        </mxCell>
      </root>
    </mxGraphModel>
  </diagram>
</mxfile>
